<svg width="43" height="29" viewBox="0 0 43 29" fill="none" xmlns="http://www.w3.org/2000/svg">
<path d="M11.673 16.0322C13.9017 24.0403 21.5353 29 21.5353 29C21.5353 29 25.5556 20.9759 23.327 12.9678C21.0983 4.95968 13.4647 0 13.4647 0C13.4647 0 9.44436 8.02412 11.673 16.0322Z" fill="#FFFBF8"/>
<path d="M31.327 16.0322C29.0983 24.0403 21.4647 29 21.4647 29C21.4647 29 17.4444 20.9759 19.673 12.9678C21.9017 4.95968 29.5353 0 29.5353 0C29.5353 0 33.5556 8.02412 31.327 16.0322Z" fill="#FFFBF8"/>
<path d="M28.5073 14.2866C22.7083 20.0856 22 29 22 29C22 29 30.6937 28.5124 36.4927 22.7134C42.2917 16.9144 43 8 43 8C43 8 34.3063 8.48762 28.5073 14.2866Z" fill="#FCD4B7"/>
<path d="M15.1828 14.2866C21.258 20.0856 22 29 22 29C22 29 12.8923 28.5124 6.81716 22.7134C0.742025 16.9144 0 8 0 8C0 8 9.1077 8.48762 15.1828 14.2866Z" fill="#FCD4B7"/>
</svg>
